<svg width="1200" height="560" viewBox="0 0 1200 560" fill="none" xmlns="http://www.w3.org/2000/svg">
  <defs>
    <linearGradient id="bg" x1="96" y1="0" x2="1104" y2="560" gradientUnits="userSpaceOnUse">
      <stop stop-color="#071827"/>
      <stop offset="0.48" stop-color="#0E2D43"/>
      <stop offset="1" stop-color="#0B3F3A"/>
    </linearGradient>
    <linearGradient id="panel" x1="210" y1="114" x2="990" y2="486" gradientUnits="userSpaceOnUse">
      <stop stop-color="#FFFFFF"/>
      <stop offset="1" stop-color="#F4FAF8"/>
    </linearGradient>
    <filter id="shadow" x="150" y="78" width="900" height="456" filterUnits="userSpaceOnUse" color-interpolation-filters="sRGB">
      <feDropShadow dx="0" dy="28" stdDeviation="34" flood-color="#000814" flood-opacity="0.42"/>
    </filter>
  </defs>

  <rect width="1200" height="560" rx="34" fill="url(#bg)"/>
  <path d="M0 446C178 366 340 376 510 434C698 498 874 500 1200 382V560H0V446Z" fill="#E6F7F3" fill-opacity="0.08"/>
  <path d="M74 94H434" stroke="#9DE8DD" stroke-opacity="0.22"/>
  <path d="M786 92H1132" stroke="#9DE8DD" stroke-opacity="0.18"/>

  <g filter="url(#shadow)">
    <rect x="180" y="96" width="840" height="408" rx="18" fill="url(#panel)"/>
    <rect x="180" y="96" width="840" height="408" rx="18" stroke="#CFE2E8"/>
    <rect x="180" y="96" width="840" height="48" rx="18" fill="#F2F7F6"/>
    <path d="M180 144H1020" stroke="#D8E6EA"/>
    <circle cx="214" cy="120" r="7" fill="#E46C5D"/>
    <circle cx="238" cy="120" r="7" fill="#E7B94A"/>
    <circle cx="262" cy="120" r="7" fill="#58B979"/>

    <rect x="180" y="144" width="162" height="360" fill="#ECF6F3"/>
    <path d="M342 144V504" stroke="#D8E6EA"/>
    <text x="214" y="180" fill="#0E4A68" font-family="-apple-system,BlinkMacSystemFont,Segoe UI,sans-serif" font-size="15" font-weight="700">Laicai</text>
    <rect x="214" y="204" width="110" height="38" rx="8" fill="#FFFFFF"/>
    <rect x="214" y="204" width="4" height="38" rx="2" fill="#0D6F68"/>
    <text x="230" y="228" fill="#243746" font-family="-apple-system,BlinkMacSystemFont,Segoe UI,sans-serif" font-size="14">项目审查</text>
    <rect x="214" y="254" width="110" height="38" rx="8" fill="#FFFFFF" fill-opacity="0.72"/>
    <text x="230" y="278" fill="#52606D" font-family="-apple-system,BlinkMacSystemFont,Segoe UI,sans-serif" font-size="14">Wiki 草稿</text>
    <rect x="214" y="304" width="110" height="38" rx="8" fill="#FFFFFF" fill-opacity="0.72"/>
    <text x="230" y="328" fill="#52606D" font-family="-apple-system,BlinkMacSystemFont,Segoe UI,sans-serif" font-size="14">图片生成</text>

    <text x="386" y="200" fill="#101820" font-family="-apple-system,BlinkMacSystemFont,Segoe UI,sans-serif" font-size="30" font-weight="800">今天想做什么？</text>
    <rect x="386" y="236" width="468" height="72" rx="9" fill="#174F73"/>
    <text x="410" y="266" fill="#FFFFFF" font-family="-apple-system,BlinkMacSystemFont,Segoe UI,sans-serif" font-size="18" font-weight="700">全面看一下当前项目的问题。</text>
    <text x="410" y="292" fill="#FFFFFF" font-family="-apple-system,BlinkMacSystemFont,Segoe UI,sans-serif" font-size="18" font-weight="700">请直接修复并验证。</text>

    <rect x="386" y="330" width="468" height="78" rx="9" fill="#FFFFFF" stroke="#D9E5EA"/>
    <text x="410" y="360" fill="#101820" font-family="-apple-system,BlinkMacSystemFont,Segoe UI,sans-serif" font-size="17" font-weight="800">计划</text>
    <text x="410" y="390" fill="#1F2937" font-family="-apple-system,BlinkMacSystemFont,Segoe UI,sans-serif" font-size="16">读取项目结构，检查最近变更，运行验证，再给出修复摘要。</text>

    <rect x="386" y="430" width="112" height="30" rx="7" fill="#D8F1EF"/>
    <text x="404" y="450" fill="#174F73" font-family="SFMono-Regular,Menlo,monospace" font-size="14">code_search</text>
    <rect x="508" y="430" width="104" height="30" rx="7" fill="#D8F1EF"/>
    <text x="526" y="450" fill="#174F73" font-family="SFMono-Regular,Menlo,monospace" font-size="14">swift_test</text>
    <rect x="622" y="430" width="96" height="30" rx="7" fill="#D8F1EF"/>
    <text x="640" y="450" fill="#174F73" font-family="SFMono-Regular,Menlo,monospace" font-size="14">wiki_save</text>

    <rect x="890" y="144" width="130" height="360" fill="#ECF6F3"/>
    <path d="M890 144V504" stroke="#D8E6EA"/>
    <text x="916" y="182" fill="#0E4A68" font-family="-apple-system,BlinkMacSystemFont,Segoe UI,sans-serif" font-size="15" font-weight="800">工具面板</text>
    <rect x="916" y="212" width="76" height="62" rx="8" fill="#FFFFFF" stroke="#D9E5EA"/>
    <text x="932" y="238" fill="#52606D" font-family="-apple-system,BlinkMacSystemFont,Segoe UI,sans-serif" font-size="13">任务</text>
    <text x="932" y="260" fill="#101820" font-family="-apple-system,BlinkMacSystemFont,Segoe UI,sans-serif" font-size="17" font-weight="800">运行中</text>
    <rect x="916" y="290" width="76" height="62" rx="8" fill="#FFFFFF" stroke="#D9E5EA"/>
    <text x="932" y="316" fill="#52606D" font-family="-apple-system,BlinkMacSystemFont,Segoe UI,sans-serif" font-size="13">证据</text>
    <text x="932" y="338" fill="#101820" font-family="-apple-system,BlinkMacSystemFont,Segoe UI,sans-serif" font-size="17" font-weight="800">已收集</text>
  </g>

  <text x="600" y="52" fill="#FFFFFF" text-anchor="middle" font-family="-apple-system,BlinkMacSystemFont,Segoe UI,sans-serif" font-size="22" font-weight="800">Local-first macOS AI Agent</text>
  <text x="600" y="530" fill="#C7FFF5" text-anchor="middle" font-family="-apple-system,BlinkMacSystemFont,Segoe UI,sans-serif" font-size="16">模型连接器 · 工具调用 · 项目记忆 · Workflow · Wiki</text>
</svg>
